<svg xmlns="http://www.w3.org/2000/svg" xml:space="preserve" viewBox="0 0 512 512">
  <path d="M100.883 334.051c-10.989 0-19.929 8.94-19.929 19.929s8.94 19.929 19.929 19.929 19.929-8.94 19.929-19.929-8.94-19.929-19.929-19.929zm0 27.857c-4.372 0-7.929-3.557-7.929-7.929s3.557-7.929 7.929-7.929 7.929 3.557 7.929 7.929-3.557 7.929-7.929 7.929z"/>
  <circle cx="258.949" cy="362.248" r="6.964"/>
  <circle cx="333.207" cy="362.248" r="6.964"/>
  <circle cx="406.955" cy="362.248" r="6.964"/>
  <path d="M173.911 207.698h-45.42l-16.648 53.273h62.068v-53.273zm-12 41.274h-33.746l9.148-29.273h24.598v29.273z"/>
  <path d="m268.055 121.556-46.294 89.668 93.322 48.182v34.765l-36.09 23.346h-51.491l.003 12.772H202.06l9.098-6.684V199.542H189.76v-7.38h-74.156l-18.801 60.012-63.33 24.226c-4.358 1.669-5.144 1.97-6.188 4.058l-.633 1.268v48.563h-8.955v32.533h48.396c3.949 15.531 18.048 27.054 34.791 27.054 16.741 0 30.84-11.521 34.791-27.05H230.768c.31 15.281 12.828 27.619 28.183 27.619s27.873-12.339 28.182-27.621h17.894c.309 15.282 12.827 27.621 28.183 27.621s27.873-12.339 28.182-27.621h17.384c.309 15.282 12.827 27.621 28.183 27.621 15.354 0 27.873-12.339 28.182-27.621h16.955v-42.697l42.212-81.76-226.253-116.811zm210.081 121.968-1.696 3.284-204.922-105.8 1.695-3.284 204.923 105.8zm-50.5 73.992h-42.38v-21.881l42.38 21.881zM245.329 191.732l20.684-40.063 43.233 22.322-20.684 40.062-43.233-22.321zm74.579-12.235 43.234 22.321-20.684 40.062-43.234-22.321 20.684-40.062zm53.897 27.826 50.85 26.254-20.684 40.061-50.85-26.253 20.684-40.062zm61.512 31.759 35.617 18.39-20.684 40.061-35.618-18.39 20.685-40.061zm-195.493-36.687 204.922 105.801-1.896 3.671-204.922-105.802 1.896-3.67zm87.258 98.304V265.6l46.174 23.839v28.076h-72.17l25.996-16.816zm-87.578 28.817h200.587v7.232h-21.116c-3.649-1.727-7.723-2.697-12.021-2.697s-8.371.971-12.021 2.697h-49.707c-3.649-1.727-7.723-2.697-12.021-2.697s-8.372.971-12.021 2.697H270.97a28.025 28.025 0 0 0-12.021-2.697c-7.533 0-14.38 2.976-19.443 7.805v-11.567h-.001v-.773zm118.451 19.232h24.252a28.292 28.292 0 0 0-1.021 2.075h-22.21a28.7 28.7 0 0 0-1.021-2.075zm-74.258 0h24.762c-.37.675-.707 1.369-1.021 2.075h-22.72a28.7 28.7 0 0 0-1.021-2.075zm-84.539-31.218-9.398 6.905v-12.819h9.398v5.914zm0-105.988v88.074h-9.398v-88.074h9.398zM29.696 342.288h37.256a35.58 35.58 0 0 0-1.818 8.533H29.696v-8.533zm71.187 35.587c-13.176 0-23.896-10.72-23.896-23.896 0-13.177 10.72-23.896 23.896-23.896s23.896 10.72 23.896 23.896-10.72 23.896-23.896 23.896zm35.749-27.05c-1.604-18.32-17.02-32.742-35.749-32.742-10.488 0-19.938 4.522-26.507 11.719H55.599v-16.134h47.514c20.924 0 37.487 16.125 38.72 37.157h-5.201zm-18.49-46.937v-30.49h-12v28.365a52.336 52.336 0 0 0-3.029-.095H43.599v28.134h-4.948v-42.536c11.399-4.365 45.632-17.457 65.151-24.921l2.714-1.038 17.903-57.145h53.341V330.288h-29.02c-6.072-12.67-17.057-22.275-30.598-26.4zm109.364 46.937h-72.167v-8.537h72.166v8.537zm31.443 27.619c-8.931 0-16.197-7.266-16.197-16.196 0-8.932 7.266-16.197 16.197-16.197s16.196 7.266 16.196 16.197c.001 8.931-7.265 16.196-16.196 16.196zm74.258 0c-8.932 0-16.197-7.266-16.197-16.196 0-8.932 7.266-16.197 16.197-16.197s16.196 7.266 16.196 16.197-7.265 16.196-16.196 16.196zm73.748 0c-8.932 0-16.197-7.266-16.197-16.196 0-8.932 7.266-16.197 16.197-16.197s16.196 7.266 16.196 16.197-7.265 16.196-16.196 16.196zm25.769-27.621c-.314-.706-.651-1.4-1.021-2.075h8.39v2.075h-7.369z"/>
  <path d="M146.815 267.397h21.095v12h-21.095z"/>
</svg>