<svg xmlns="http://www.w3.org/2000/svg" xml:space="preserve" viewBox="0 0 512 512" >
  <path d="M295.607 259.473a60.2 60.2 0 0 1-2.969-18.743c0-33.246 27.047-60.293 60.293-60.293s60.293 27.047 60.293 60.293c0 33.247-27.047 60.294-60.293 60.294-22.646 0-43.182-12.506-53.593-32.639l-10.659 5.513c12.481 24.134 37.102 39.126 64.252 39.126 39.863 0 72.293-32.431 72.293-72.294 0-39.862-32.43-72.293-72.293-72.293-39.862 0-72.293 32.431-72.293 72.293a72.184 72.184 0 0 0 3.562 22.471l11.407-3.728z"/>
  <path d="M352.932 296.201c30.588 0 55.472-24.884 55.472-55.472 0-30.587-24.884-55.472-55.472-55.472s-55.473 24.885-55.473 55.472c0 30.588 24.885 55.472 55.473 55.472zm0-98.943c22.978 0 41.836 17.923 43.36 40.521h-16.437v12h15.594c-4.176 19.642-21.65 34.423-42.518 34.423s-38.342-14.781-42.518-34.423h59.023v-12H309.57c1.526-22.598 20.384-40.521 43.362-40.521z"/>
  <path d="M45.226 359.939h18.648v11.505h12v-19.841h124.381v19.5H372.975c63.562 0 115.273-51.711 115.273-115.273s-51.712-115.274-115.273-115.274h-70.537l-10.754 10.808-.852-.837c-7.861-7.729-20.588-7.666-28.371.143l-23.772 23.85a19.996 19.996 0 0 0-5.873 14.312 19.993 19.993 0 0 0 6.016 14.252l.702.69-15.807 15.886v85.818l-23.473 14.451v19.676H75.874v-2.274h110.143v-12H75.874v-8.337H45.226c-11.841 0-21.474 9.633-21.474 21.475 0 11.838 9.633 21.47 21.474 21.47zm202.768-164.677-.748-.736a8.075 8.075 0 0 1-2.43-5.756 8.068 8.068 0 0 1 2.372-5.779l23.773-23.85a8.102 8.102 0 0 1 5.758-2.383 8.1 8.1 0 0 1 5.699 2.325l.801.787-10.041 10.092-25.184 25.3zm-12.266 29.349 46.862-47.096 17.652-17.735-.002-.003 7.186-7.222h45.506c32.79 0 62.594 18.074 77.781 47.168l10.638-5.553c-7.007-13.423-16.751-24.781-28.348-33.54 37.123 15.668 63.245 52.439 63.245 95.199 0 56.945-46.328 103.273-103.273 103.273H263.152v-19.187h96.822c51.08 0 92.637-41.557 92.637-92.638v-7.043c0-12.524-2.294-24.739-6.82-36.306l-11.174 4.372c3.978 10.168 5.994 20.911 5.994 31.934v7.043c0 44.464-36.174 80.638-80.637 80.638H251.152v31.187h-15.425V224.611zm-23.474 102.021 11.473-7.063v39.535h-11.473v-32.472zm-167.028 2.36h18.648v3.475H51.449v12h12.425v3.473H45.226c-5.224 0-9.474-4.25-9.474-9.473 0-5.225 4.25-9.475 9.474-9.475z"/>
  <path d="M251.453 309.518h35.237v12h-35.237z"/>
</svg>