<svg xmlns="http://www.w3.org/2000/svg" xml:space="preserve" viewBox="0 0 512 512">
  <path d="M120.588 158.835h42.046v6.726h23.667v23.466h23.109l14.782 20.093v20.841h6.63v51.618h-16.135v12h16.135v72.127H250v113.961h12V365.705h17.454v-72.127h17.858v-12h-17.858v-19.379h-12v19.379h-24.632V229.96h24.632v19.928h12V229.96h8.116v-20.819l14.996-20.114h23.133v-23.466h23.667v-6.726h42.046c11.543 0 20.934-9.391 20.934-20.934 0-11.542-9.391-20.934-20.934-20.934h-42.046v-6.726h-23.667V61.784c0-16.239-13.206-29.45-29.439-29.45h-80.52c-16.233 0-29.439 13.211-29.439 29.45v48.458h-23.667v6.726h-42.046c-11.543 0-20.934 9.391-20.934 20.934 0 11.542 9.391 20.933 20.934 20.933zm122.234 170.401h24.632v5.829h-24.632v-5.829zm0-12v-5.829h24.632v5.829h-24.632zm0 36.469v-6.64h24.632v6.64h-24.632zm24.632-60.127v5.829h-24.632v-5.829h24.632zm132.892-155.677c0 4.926-4.008 8.934-8.934 8.934h-21.9v-17.867h21.9c4.926 0 8.934 4.008 8.934 8.933zm-42.834-8.933v17.867h-8.146v-17.867h8.146zm-31.808-6.726h11.662v31.318h-11.662v-31.318zm-32.146 58.791-17.987 24.126v12.801h-39.378v-12.779l-17.75-24.127v-58.812h75.115v58.791zm12-4.007v-66.784h-99.115v66.784h-8.142v-96.07h10.904l13.568 20.643h66.453l13.567-20.643h10.905v96.07h-8.14zM215.74 44.334h80.52c9.616 0 17.439 7.828 17.439 17.45v7.173h-17.378L282.754 89.6h-53.508l-13.568-20.643h-17.377v-7.173c0-9.622 7.823-17.45 17.439-17.45zm-29.444 109.227h-11.662v-31.318h11.662v31.318zm-23.662-6.726h-8.146v-17.867h8.146v17.867zm-42.046-17.867h21.9v17.867h-21.9c-4.926 0-8.934-4.008-8.934-8.934s4.008-8.933 8.934-8.933z"/>
  <path d="M238.006 134.304h35.988v12h-35.988zM238.006 152.174h35.988v12h-35.988zM237.684 72.745h36.633v12h-36.633z"/>
</svg>